<?xml version="1.0" encoding="UTF-8" standalone="no"?>
<svg
   xmlns:dc="http://purl.org/dc/elements/1.1/"
   xmlns:cc="http://creativecommons.org/ns#"
   xmlns:rdf="http://www.w3.org/1999/02/22-rdf-syntax-ns#"
   xmlns:svg="http://www.w3.org/2000/svg"
   xmlns="http://www.w3.org/2000/svg"
   xmlns:sodipodi="http://sodipodi.sourceforge.net/DTD/sodipodi-0.dtd"
   xmlns:inkscape="http://www.inkscape.org/namespaces/inkscape"
   version="1"
   viewBox="0 0 778.94824 660.62231"
   enable-background="new 0 0 48 48"
   id="svg4571"
   sodipodi:docname="fs-check-question.svg"
   inkscape:version="0.92.1 r15371"
   width="778.94824"
   height="660.62231">
  <metadata
     id="metadata4577">
    <rdf:RDF>
      <cc:Work
         rdf:about="">
        <dc:format>image/svg+xml</dc:format>
        <dc:type
           rdf:resource="http://purl.org/dc/dcmitype/StillImage" />
        <dc:title />
      </cc:Work>
    </rdf:RDF>
  </metadata>
  <defs
     id="defs4575" />
  <sodipodi:namedview
     pagecolor="#ffffff"
     bordercolor="#666666"
     borderopacity="1"
     objecttolerance="10"
     gridtolerance="10"
     guidetolerance="10"
     inkscape:pageopacity="0"
     inkscape:pageshadow="2"
     inkscape:window-width="1888"
     inkscape:window-height="1025"
     id="namedview4573"
     showgrid="false"
     inkscape:zoom="2.7363559"
     inkscape:cx="544.35459"
     inkscape:cy="91.330265"
     inkscape:window-x="14"
     inkscape:window-y="37"
     inkscape:window-maximized="0"
     inkscape:current-layer="svg4571"
     fit-margin-top="0"
     fit-margin-left="0"
     fit-margin-right="0"
     fit-margin-bottom="0" />
  <g
     id="g4581"
     transform="matrix(2.1625864,0,0,2.1625864,419.69114,-17.300691)">
    <path
       id="path4567"
       d="M 40,12 H 22 L 18,8 H 8 C 5.8,8 4,9.8 4,12 v 8 h 40 v -4 c 0,-2.2 -1.8,-4 -4,-4 z"
       inkscape:connector-curvature="0"
       style="fill:#ffa000" />
    <path
       id="path4569"
       d="M 40,12 H 8 c -2.2,0 -4,1.8 -4,4 v 20 c 0,2.2 1.8,4 4,4 h 32 c 2.2,0 4,-1.8 4,-4 V 16 c 0,-2.2 -1.8,-4 -4,-4 z"
       inkscape:connector-curvature="0"
       style="fill:#ffca28" />
  </g>
  <text
     xml:space="preserve"
     style="font-style:normal;font-variant:normal;font-weight:normal;font-stretch:normal;font-size:33.33333206px;line-height:25px;font-family:Inconsolata;-inkscape-font-specification:Inconsolata;letter-spacing:0px;word-spacing:0px;fill:#000000;fill-opacity:1;stroke:none;stroke-width:1px;stroke-linecap:butt;stroke-linejoin:miter;stroke-opacity:1"
     x="459.60736"
     y="48.039886"
     id="text4585"><tspan
       sodipodi:role="line"
       id="tspan4583"
       x="459.60736"
       y="48.039886">/</tspan></text>
  <g
     transform="matrix(2.1625864,0,0,2.1625864,412.48081,89.086311)"
     id="g4603">
    <path
       style="fill:#ffa000"
       inkscape:connector-curvature="0"
       d="M 40,12 H 22 L 18,8 H 8 C 5.8,8 4,9.8 4,12 v 8 h 40 v -4 c 0,-2.2 -1.8,-4 -4,-4 z"
       id="path4599" />
    <path
       style="fill:#ffca28"
       inkscape:connector-curvature="0"
       d="M 40,12 H 8 c -2.2,0 -4,1.8 -4,4 v 20 c 0,2.2 1.8,4 4,4 h 32 c 2.2,0 4,-1.8 4,-4 V 16 c 0,-2.2 -1.8,-4 -4,-4 z"
       id="path4601" />
  </g>
  <text
     id="text4613"
     y="151.83839"
     x="430.8381"
     style="font-style:normal;font-variant:normal;font-weight:normal;font-stretch:normal;font-size:26.66666603px;line-height:25px;font-family:Inconsolata;-inkscape-font-specification:Inconsolata;letter-spacing:0px;word-spacing:0px;fill:#000000;fill-opacity:1;stroke:none;stroke-width:1px;stroke-linecap:butt;stroke-linejoin:miter;stroke-opacity:1"
     xml:space="preserve"><tspan
       y="151.83839"
       x="430.8381"
       id="tspan4611"
       sodipodi:role="line">home</tspan></text>
  <g
     id="g4631"
     transform="matrix(2.1625864,0,0,2.1625864,415.58175,233.80432)">
    <path
       id="path4627"
       d="M 40,12 H 22 L 18,8 H 8 C 5.8,8 4,9.8 4,12 v 8 h 40 v -4 c 0,-2.2 -1.8,-4 -4,-4 z"
       inkscape:connector-curvature="0"
       style="fill:#ffa000" />
    <path
       id="path4629"
       d="M 40,12 H 8 c -2.2,0 -4,1.8 -4,4 v 20 c 0,2.2 1.8,4 4,4 h 32 c 2.2,0 4,-1.8 4,-4 V 16 c 0,-2.2 -1.8,-4 -4,-4 z"
       inkscape:connector-curvature="0"
       style="fill:#ffca28" />
  </g>
  <text
     xml:space="preserve"
     style="font-style:normal;font-variant:normal;font-weight:normal;font-stretch:normal;font-size:24px;line-height:25px;font-family:Inconsolata;-inkscape-font-specification:Inconsolata;letter-spacing:0px;word-spacing:0px;fill:#000000;fill-opacity:1;stroke:none;stroke-width:1px;stroke-linecap:butt;stroke-linejoin:miter;stroke-opacity:1"
     x="423.9465"
     y="296.5564"
     id="text4635"><tspan
       sodipodi:role="line"
       id="tspan4633"
       x="423.9465"
       y="296.5564">learner</tspan></text>
  <g
     transform="matrix(2.1625864,0,0,2.1625864,253.92765,233.80432)"
     id="g4641">
    <path
       style="fill:#ffa000"
       inkscape:connector-curvature="0"
       d="M 40,12 H 22 L 18,8 H 8 C 5.8,8 4,9.8 4,12 v 8 h 40 v -4 c 0,-2.2 -1.8,-4 -4,-4 z"
       id="path4637" />
    <path
       style="fill:#ffca28"
       inkscape:connector-curvature="0"
       d="M 40,12 H 8 c -2.2,0 -4,1.8 -4,4 v 20 c 0,2.2 1.8,4 4,4 h 32 c 2.2,0 4,-1.8 4,-4 V 16 c 0,-2.2 -1.8,-4 -4,-4 z"
       id="path4639" />
  </g>
  <text
     id="text4645"
     y="296.5564"
     x="266.94382"
     style="font-style:normal;font-variant:normal;font-weight:normal;font-stretch:normal;font-size:24px;line-height:25px;font-family:Inconsolata;-inkscape-font-specification:Inconsolata;letter-spacing:0px;word-spacing:0px;fill:#000000;fill-opacity:1;stroke:none;stroke-width:1px;stroke-linecap:butt;stroke-linejoin:miter;stroke-opacity:1"
     xml:space="preserve"><tspan
       y="296.5564"
       x="266.94382"
       id="tspan4643"
       sodipodi:role="line">backup</tspan></text>
  <g
     transform="matrix(2.1625864,0,0,2.1625864,411.24211,366.43023)"
     id="g5827">
    <path
       style="fill:#ffa000"
       inkscape:connector-curvature="0"
       d="M 40,12 H 22 L 18,8 H 8 C 5.8,8 4,9.8 4,12 v 8 h 40 v -4 c 0,-2.2 -1.8,-4 -4,-4 z"
       id="path5823" />
    <path
       style="fill:#ffca28"
       inkscape:connector-curvature="0"
       d="M 40,12 H 8 c -2.2,0 -4,1.8 -4,4 v 20 c 0,2.2 1.8,4 4,4 h 32 c 2.2,0 4,-1.8 4,-4 V 16 c 0,-2.2 -1.8,-4 -4,-4 z"
       id="path5825" />
  </g>
  <text
     id="text5831"
     y="427.96057"
     x="426.49475"
     style="font-style:normal;font-variant:normal;font-weight:normal;font-stretch:normal;font-size:24px;line-height:25px;font-family:Inconsolata;-inkscape-font-specification:Inconsolata;letter-spacing:0px;word-spacing:0px;fill:#000000;fill-opacity:1;stroke:none;stroke-width:1px;stroke-linecap:butt;stroke-linejoin:miter;stroke-opacity:1"
     xml:space="preserve"><tspan
       y="427.96057"
       x="426.49475"
       id="tspan5829"
       sodipodi:role="line">backup</tspan></text>
  <path
     style="fill:none;fill-rule:evenodd;stroke:#000000;stroke-width:3.77952766;stroke-linecap:butt;stroke-linejoin:miter;stroke-miterlimit:4;stroke-dasharray:none;stroke-opacity:1"
     d="M 472.16696,69.942509 V 109.22111"
     id="path5847"
     inkscape:connector-curvature="0" />
  <path
     style="fill:none;fill-rule:evenodd;stroke:#000000;stroke-width:3.77952766;stroke-linecap:butt;stroke-linejoin:miter;stroke-miterlimit:4;stroke-dasharray:none;stroke-opacity:1"
     d="m 467.51554,178.21707 v 75.97308"
     id="path5849"
     inkscape:connector-curvature="0" />
  <path
     style="fill:none;fill-rule:evenodd;stroke:#000000;stroke-width:3.77952766;stroke-linecap:butt;stroke-linejoin:miter;stroke-miterlimit:4;stroke-dasharray:none;stroke-opacity:1"
     d="M 466.11438,214.36061 H 308.40992 v 42.20942"
     id="path5851"
     inkscape:connector-curvature="0"
     sodipodi:nodetypes="cc" />
  <path
     style="fill:none;fill-rule:evenodd;stroke:#000000;stroke-width:3.77952766;stroke-linecap:butt;stroke-linejoin:miter;stroke-miterlimit:4;stroke-dasharray:none;stroke-opacity:1"
     d="m 468.06262,363.30247 v 25.21602"
     id="path5861"
     inkscape:connector-curvature="0" />
  <path
     inkscape:connector-curvature="0"
     id="path5867"
     d="m 468.09923,324.54769 v 39.2786"
     style="fill:none;fill-rule:evenodd;stroke:#000000;stroke-width:3.77952766;stroke-linecap:butt;stroke-linejoin:miter;stroke-miterlimit:4;stroke-dasharray:none;stroke-opacity:1" />
  <path
     sodipodi:nodetypes="cc"
     style="fill:none;fill-rule:evenodd;stroke:#000000;stroke-width:3.77952766;stroke-linecap:butt;stroke-linejoin:miter;stroke-miterlimit:4;stroke-dasharray:none;stroke-opacity:1"
     d="M 315.26196,364.58154 H 41.26617"
     id="path4671"
     inkscape:connector-curvature="0" />
  <path
     inkscape:connector-curvature="0"
     id="path4673"
     d="m 313.43471,364.58154 v 25.21602"
     style="fill:none;fill-rule:evenodd;stroke:#000000;stroke-width:3.77952766;stroke-linecap:butt;stroke-linejoin:miter;stroke-miterlimit:4;stroke-dasharray:none;stroke-opacity:1" />
  <path
     style="fill:none;fill-rule:evenodd;stroke:#000000;stroke-width:3.77952766;stroke-linecap:butt;stroke-linejoin:miter;stroke-miterlimit:4;stroke-dasharray:none;stroke-opacity:1"
     d="m 165.7931,364.58154 v 25.21602"
     id="path4675"
     inkscape:connector-curvature="0" />
  <path
     inkscape:connector-curvature="0"
     id="path4677"
     d="m 41.26617,364.58154 v 25.21602"
     style="fill:none;fill-rule:evenodd;stroke:#000000;stroke-width:3.77952766;stroke-linecap:butt;stroke-linejoin:miter;stroke-miterlimit:4;stroke-dasharray:none;stroke-opacity:1" />
  <path
     style="fill:none;fill-rule:evenodd;stroke:#000000;stroke-width:3.77952766;stroke-linecap:butt;stroke-linejoin:miter;stroke-miterlimit:4;stroke-dasharray:none;stroke-opacity:1"
     d="m 313.3981,324.54769 v 39.2786"
     id="path4679"
     inkscape:connector-curvature="0" />
  <path
     inkscape:connector-curvature="0"
     id="path4727"
     d="M 461.83612,500.55028 H 735.8319"
     style="fill:none;fill-rule:evenodd;stroke:#000000;stroke-width:3.77952766;stroke-linecap:butt;stroke-linejoin:miter;stroke-miterlimit:4;stroke-dasharray:none;stroke-opacity:1"
     sodipodi:nodetypes="cc" />
  <path
     style="fill:none;fill-rule:evenodd;stroke:#000000;stroke-width:3.77952766;stroke-linecap:butt;stroke-linejoin:miter;stroke-miterlimit:4;stroke-dasharray:none;stroke-opacity:1"
     d="M 463.66337,500.55028 V 525.7663"
     id="path4729"
     inkscape:connector-curvature="0" />
  <path
     inkscape:connector-curvature="0"
     id="path4731"
     d="M 611.30497,500.55028 V 525.7663"
     style="fill:none;fill-rule:evenodd;stroke:#000000;stroke-width:3.77952766;stroke-linecap:butt;stroke-linejoin:miter;stroke-miterlimit:4;stroke-dasharray:none;stroke-opacity:1" />
  <path
     style="fill:none;fill-rule:evenodd;stroke:#000000;stroke-width:3.77952766;stroke-linecap:butt;stroke-linejoin:miter;stroke-miterlimit:4;stroke-dasharray:none;stroke-opacity:1"
     d="M 735.8319,500.55028 V 525.7663"
     id="path4733"
     inkscape:connector-curvature="0" />
  <path
     inkscape:connector-curvature="0"
     id="path4735"
     d="m 463.69998,460.51643 v 39.2786"
     style="fill:none;fill-rule:evenodd;stroke:#000000;stroke-width:3.77952766;stroke-linecap:butt;stroke-linejoin:miter;stroke-miterlimit:4;stroke-dasharray:none;stroke-opacity:1" />
  <g
     id="g4766"
     transform="matrix(2.1625864,0,0,2.1625864,-12.11961,368.28974)">
    <path
       id="path4762"
       d="M 40,12 H 22 L 18,8 H 8 C 5.8,8 4,9.8 4,12 v 8 h 40 v -4 c 0,-2.2 -1.8,-4 -4,-4 z"
       inkscape:connector-curvature="0"
       style="fill:#ffa000" />
    <path
       id="path4764"
       d="M 40,12 H 8 c -2.2,0 -4,1.8 -4,4 v 20 c 0,2.2 1.8,4 4,4 h 32 c 2.2,0 4,-1.8 4,-4 V 16 c 0,-2.2 -1.8,-4 -4,-4 z"
       inkscape:connector-curvature="0"
       style="fill:#ffca28" />
  </g>
  <g
     transform="matrix(2.1625864,0,0,2.1625864,108.47874,368.28974)"
     id="g4772">
    <path
       style="fill:#ffa000"
       inkscape:connector-curvature="0"
       d="M 40,12 H 22 L 18,8 H 8 C 5.8,8 4,9.8 4,12 v 8 h 40 v -4 c 0,-2.2 -1.8,-4 -4,-4 z"
       id="path4768" />
    <path
       style="fill:#ffca28"
       inkscape:connector-curvature="0"
       d="M 40,12 H 8 c -2.2,0 -4,1.8 -4,4 v 20 c 0,2.2 1.8,4 4,4 h 32 c 2.2,0 4,-1.8 4,-4 V 16 c 0,-2.2 -1.8,-4 -4,-4 z"
       id="path4770" />
  </g>
  <g
     id="g4782"
     transform="matrix(2.1625864,0,0,2.1625864,253.92765,368.28974)">
    <path
       id="path4778"
       d="M 40,12 H 22 L 18,8 H 8 C 5.8,8 4,9.8 4,12 v 8 h 40 v -4 c 0,-2.2 -1.8,-4 -4,-4 z"
       inkscape:connector-curvature="0"
       style="fill:#ffa000" />
    <path
       id="path4780"
       d="M 40,12 H 8 c -2.2,0 -4,1.8 -4,4 v 20 c 0,2.2 1.8,4 4,4 h 32 c 2.2,0 4,-1.8 4,-4 V 16 c 0,-2.2 -1.8,-4 -4,-4 z"
       inkscape:connector-curvature="0"
       style="fill:#ffca28" />
  </g>
  <g
     transform="matrix(2.1625864,0,0,2.1625864,407.01873,503.52758)"
     id="g4792">
    <path
       style="fill:#ffa000"
       inkscape:connector-curvature="0"
       d="M 40,12 H 22 L 18,8 H 8 C 5.8,8 4,9.8 4,12 v 8 h 40 v -4 c 0,-2.2 -1.8,-4 -4,-4 z"
       id="path4788" />
    <path
       style="fill:#ffca28"
       inkscape:connector-curvature="0"
       d="M 40,12 H 8 c -2.2,0 -4,1.8 -4,4 v 20 c 0,2.2 1.8,4 4,4 h 32 c 2.2,0 4,-1.8 4,-4 V 16 c 0,-2.2 -1.8,-4 -4,-4 z"
       id="path4790" />
  </g>
  <text
     xml:space="preserve"
     style="font-style:normal;font-variant:normal;font-weight:normal;font-stretch:normal;font-size:24px;line-height:25px;font-family:Inconsolata;-inkscape-font-specification:Inconsolata;letter-spacing:0px;word-spacing:0px;fill:#000000;fill-opacity:1;stroke:none;stroke-width:1px;stroke-linecap:butt;stroke-linejoin:miter;stroke-opacity:1"
     x="13.982644"
     y="431.9144"
     id="text4796"><tspan
       sodipodi:role="line"
       id="tspan4794"
       x="13.982644"
       y="431.9144">base</tspan></text>
  <g
     id="g4802"
     transform="matrix(2.1625864,0,0,2.1625864,551.73675,503.52758)">
    <path
       id="path4798"
       d="M 40,12 H 22 L 18,8 H 8 C 5.8,8 4,9.8 4,12 v 8 h 40 v -4 c 0,-2.2 -1.8,-4 -4,-4 z"
       inkscape:connector-curvature="0"
       style="fill:#ffa000" />
    <path
       id="path4800"
       d="M 40,12 H 8 c -2.2,0 -4,1.8 -4,4 v 20 c 0,2.2 1.8,4 4,4 h 32 c 2.2,0 4,-1.8 4,-4 V 16 c 0,-2.2 -1.8,-4 -4,-4 z"
       inkscape:connector-curvature="0"
       style="fill:#ffca28" />
  </g>
  <text
     id="text4806"
     y="429.33026"
     x="136.58873"
     style="font-style:normal;font-variant:normal;font-weight:normal;font-stretch:normal;font-size:24px;line-height:25px;font-family:Inconsolata;-inkscape-font-specification:Inconsolata;letter-spacing:0px;word-spacing:0px;fill:#000000;fill-opacity:1;stroke:none;stroke-width:1px;stroke-linecap:butt;stroke-linejoin:miter;stroke-opacity:1"
     xml:space="preserve"><tspan
       y="429.33026"
       x="136.58873"
       id="tspan4804"
       sodipodi:role="line">orig</tspan></text>
  <g
     transform="matrix(2.1625864,0,0,2.1625864,675.98959,503.52758)"
     id="g4812">
    <path
       style="fill:#ffa000"
       inkscape:connector-curvature="0"
       d="M 40,12 H 22 L 18,8 H 8 C 5.8,8 4,9.8 4,12 v 8 h 40 v -4 c 0,-2.2 -1.8,-4 -4,-4 z"
       id="path4808" />
    <path
       style="fill:#ffca28"
       inkscape:connector-curvature="0"
       d="M 40,12 H 8 c -2.2,0 -4,1.8 -4,4 v 20 c 0,2.2 1.8,4 4,4 h 32 c 2.2,0 4,-1.8 4,-4 V 16 c 0,-2.2 -1.8,-4 -4,-4 z"
       id="path4810" />
  </g>
  <text
     xml:space="preserve"
     style="font-style:normal;font-variant:normal;font-weight:normal;font-stretch:normal;font-size:24px;line-height:25px;font-family:Inconsolata;-inkscape-font-specification:Inconsolata;letter-spacing:0px;word-spacing:0px;fill:#000000;fill-opacity:1;stroke:none;stroke-width:1px;stroke-linecap:butt;stroke-linejoin:miter;stroke-opacity:1"
     x="271.43652"
     y="429.07187"
     id="text4816"><tspan
       sodipodi:role="line"
       id="tspan4814"
       x="271.43652"
       y="429.07187">recent</tspan></text>
  <text
     id="text4685"
     y="568.52582"
     x="416.20697"
     style="font-style:normal;font-variant:normal;font-weight:normal;font-stretch:normal;font-size:24px;line-height:25px;font-family:Inconsolata;-inkscape-font-specification:Inconsolata;letter-spacing:0px;word-spacing:0px;fill:#000000;fill-opacity:1;stroke:none;stroke-width:1px;stroke-linecap:butt;stroke-linejoin:miter;stroke-opacity:1"
     xml:space="preserve"><tspan
       y="568.52582"
       x="416.20697"
       id="tspan4683"
       sodipodi:role="line">2017-07</tspan></text>
  <text
     xml:space="preserve"
     style="font-style:normal;font-variant:normal;font-weight:normal;font-stretch:normal;font-size:24px;line-height:25px;font-family:Inconsolata;-inkscape-font-specification:Inconsolata;letter-spacing:0px;word-spacing:0px;fill:#000000;fill-opacity:1;stroke:none;stroke-width:1px;stroke-linecap:butt;stroke-linejoin:miter;stroke-opacity:1"
     x="561.29047"
     y="568.52582"
     id="text4776"><tspan
       sodipodi:role="line"
       id="tspan4774"
       x="561.29047"
       y="568.52582">2017-08</tspan></text>
  <text
     id="text4786"
     y="567.42944"
     x="687.00507"
     style="font-style:normal;font-variant:normal;font-weight:normal;font-stretch:normal;font-size:24px;line-height:25px;font-family:Inconsolata;-inkscape-font-specification:Inconsolata;letter-spacing:0px;word-spacing:0px;fill:#000000;fill-opacity:1;stroke:none;stroke-width:1px;stroke-linecap:butt;stroke-linejoin:miter;stroke-opacity:1"
     xml:space="preserve"><tspan
       y="567.42944"
       x="687.00507"
       id="tspan4784"
       sodipodi:role="line">2017-09</tspan></text>
</svg>
